<?xml version="1.0" encoding="UTF-8"?>
<svg version="1.1" viewBox="0 100 700 700" width="700" height="700" xmlns="http://www.w3.org/2000/svg">

<path transform="translate(201,151)" d="m0 0h261l8 7 25 25 8 7 17 17 8 7 27 27v94l-41 41-7 8-36 36-1 99v242l-5 5-18 13-57 42-16 12-19 14-18 13-5 3-15-11-19-14-18-13-16-12-18-13-38-28-13-9v-338l-7-8-61-61-8-7-11-11v-98l12-12 8-7 14-14 8-7 16-16 8-7 13-13 8-7 4-5z" fill="#C41230"/>
<path transform="translate(445,446)" d="m0 0h1v303l-4 4-76 56-16 12-14 10-1 1h-5l-16-12-18-13-12-9-18-13-19-14-16-12-11-8-1-2v-206l1-94 4 2 53 53 1 2v209l-1 4 3-3 11-22 11-23 24-50 4-8 3 1 14 26 10 20 10 19 14 27 5 9 1-210 12-12 7-8z" fill="#000000"/>
<path transform="translate(211,175)" d="m0 0h241l8 7 9 9 8 7 7 8-5 5-7 6-7 8-34 34-8 7-45 45-7 6h-2l-1 3-4 4-1 79-3 1h-57l-1-1-1-78-7-8-21-21-7-8-34-34-7-8-36-36-6-7 2-4 12-11 12-12z" fill="#000000"/>
<path transform="translate(153,230)" d="m0 0h1v71h92l21 21 7 8 3 3 1 3v59l-5-1-22-11-20-9-54-27-23-11-20-10-3-3v-72l11-11 8-7z" fill="#000000"/>
<path transform="translate(513,235)" d="m0 0 3 1v2l4 2 10 10 1 2v70l-4 3-40 20-17 9-50 25-19 10-12 6h-2v-60l7-8 15-15 8-7 4-4 91-1z" fill="#000000"/>
<path transform="translate(345,428)" d="m0 0h17l1 1v188l-3-3-8-14-9-18v-40l1-113z" fill="#000000"/>
<path transform="translate(303,428)" d="m0 0h17l1 1-1 129-1 23-4 10-11 22-2 1v-185z" fill="#000000"/>
<path transform="translate(184,377)" d="m0 0 10 4 50 25 23 11 10 5 1 2v45l-4-1-19-19-8-7-63-63z" fill="#000000"/>
<path transform="translate(478,376)" d="m0 0v3l-4 4h-2l-2 4-17 17-7 8-49 49-7 8h-3v-46l18-10 36-18 14-8 18-8z" fill="#000000"/>
<path transform="translate(177,232)" d="m0 0 4 2 9 10 31 31-1 2h-43z" fill="#000000"/>
<path transform="translate(487,236)" d="m0 0 2 1v39l-1 1h-41l2-4 13-13 8-7z" fill="#000000"/>
</svg>
